<?xml version="1.0" encoding="UTF-8" standalone="no"?>
<!-- Created with Inkscape (http://www.inkscape.org/) -->

<svg
   xmlns:dc="http://purl.org/dc/elements/1.1/"
   xmlns:cc="http://creativecommons.org/ns#"
   xmlns:rdf="http://www.w3.org/1999/02/22-rdf-syntax-ns#"
   xmlns:svg="http://www.w3.org/2000/svg"
   xmlns="http://www.w3.org/2000/svg"
   xmlns:sodipodi="http://sodipodi.sourceforge.net/DTD/sodipodi-0.dtd"
   xmlns:inkscape="http://www.inkscape.org/namespaces/inkscape"
   width="744.09448819"
   height="1052.3622047"
   id="svg3076"
   version="1.1"
   inkscape:version="0.48.0 r9654"
   sodipodi:docname="New document 4">
  <defs
     id="defs3078" />
  <sodipodi:namedview
     id="base"
     pagecolor="#ffffff"
     bordercolor="#666666"
     borderopacity="1.0"
     inkscape:pageopacity="0.0"
     inkscape:pageshadow="2"
     inkscape:zoom="0.35"
     inkscape:cx="375"
     inkscape:cy="520"
     inkscape:document-units="px"
     inkscape:current-layer="layer1"
     showgrid="false"
     inkscape:window-width="474"
     inkscape:window-height="459"
     inkscape:window-x="0"
     inkscape:window-y="22"
     inkscape:window-maximized="0" />
  <metadata
     id="metadata3081">
    <rdf:RDF>
      <cc:Work
         rdf:about="">
        <dc:format>image/svg+xml</dc:format>
        <dc:type
           rdf:resource="http://purl.org/dc/dcmitype/StillImage" />
        <dc:title></dc:title>
      </cc:Work>
    </rdf:RDF>
  </metadata>
  <g
     inkscape:label="Layer 1"
     inkscape:groupmode="layer"
     id="layer1">
    <g
       transform="matrix(-0.70515162,0,0,0.52529396,478.31461,141.35122)"
       clip-path="none"
       style="font-size:322.18560791px;font-style:normal;font-weight:normal;line-height:125%;letter-spacing:0px;word-spacing:0px;fill:#717171;fill-opacity:1;stroke:none;font-family:Sans"
       id="text2993-4">
      <path
         d="m 423.70489,535.17888 c -1.6e-4,5.3698 -0.32235,10.63216 -0.96656,15.78709 -0.64453,4.94021 -1.82587,10.41736 -3.54404,16.43147 -1.50369,5.79935 -4.29596,10.52473 -8.37683,14.17616 -3.86637,3.43665 -8.59175,5.15497 -14.17616,5.15497 -3.43678,0 -6.55124,-0.85916 -9.34339,-2.57748 -2.5776,-1.71832 -4.7255,-4.29581 -6.44371,-7.73246 -1.71843,-3.65142 -3.00718,-6.55109 -3.86623,-8.69901 -0.64448,-2.36267 -1.50364,-5.58453 -2.57748,-9.66557 l -16.43147,-63.47056 -3.52368,-13.55555 -30.95018,101.51222 -15.08524,0.39869 37.27306,-127.87847 c -7e-5,-0.42942 -6.50819,-35.22379 -7.36728,-37.80144 -0.64444,-2.57731 -1.18142,-4.29563 -1.61093,-5.15497 -0.21486,-1.07378 -0.75183,-2.7921 -1.61093,-5.15497 -0.85922,-2.5773 -1.61099,-4.40302 -2.2553,-5.47715 -0.64443,-1.28856 -1.61099,-2.79209 -2.89967,-4.5106 -1.2888,-1.93293 -2.57754,-3.32906 -3.86622,-4.18841 -1.07401,-0.85897 -2.47015,-1.61074 -4.18842,-2.2553 -1.50358,-0.64418 -3.2219,-0.96637 -5.15497,-0.96656 -6.65854,1.9e-4 -12.0283,2.57768 -16.10928,7.73246 -4.08104,4.94036 -6.44374,10.95448 -7.08808,18.04239 l -9.34338,0 c 0.21477,-5.79917 0.85914,-11.5985 1.93311,-17.39802 1.07393,-5.79915 2.68486,-11.81328 4.83279,-18.0424 2.36266,-6.22871 5.69191,-11.27628 9.98775,-15.14272 4.51056,-3.86601 9.88031,-5.79912 16.10928,-5.79934 3.65138,2.2e-4 6.98063,1.07417 9.98775,3.22186 3.00701,2.14812 5.47709,4.7256 7.41027,7.73245 1.93305,2.79249 3.75876,6.55131 5.47716,11.2765 1.93304,4.72558 3.32917,8.6992 4.18841,11.92086 0.85908,3.22205 1.82564,7.41045 2.89967,12.56524 1.07387,4.94035 1.82564,8.05481 2.2553,9.34339 l 31.252,119.20867 c 1.07384,4.29585 2.0404,7.7325 2.89968,10.30994 0.85904,2.36273 2.57736,4.94021 5.15496,7.73245 2.57737,2.57752 5.69182,3.86626 9.34339,3.86623 5.58441,3e-5 9.66543,-2.68485 12.24305,-8.05464 2.79213,-5.58451 4.18827,-11.38384 4.18841,-17.39802 l 9.34339,0 0,4.5106"
         style="font-variant:normal;font-stretch:normal;fill:#717171;fill-opacity:1;font-family:Ubuntu;-inkscape-font-specification:Ubuntu"
         id="path3016-0"
         inkscape:connector-curvature="0"
         sodipodi:nodetypes="ccccsccccccccccccccccccccsccccccccccccccccc" />
    </g>
    <g
       transform="matrix(-1.1163395,0,0,0.89578482,583.65838,-54.054236)"
       clip-path="none"
       style="font-size:322.18560791px;font-style:normal;font-weight:normal;line-height:125%;letter-spacing:0px;word-spacing:0px;fill:#000000;fill-opacity:1;stroke:none;font-family:Sans"
       id="text2993-1">
      <path
         d="m 423.70489,535.17888 c -1.6e-4,5.3698 -0.32235,10.63216 -0.96656,15.78709 -0.64453,4.94021 -1.82587,10.41736 -3.54404,16.43147 -1.50369,5.79935 -4.29596,10.52473 -8.37683,14.17616 -3.86637,3.43665 -8.59175,5.15497 -14.17616,5.15497 -3.43678,0 -6.55124,-0.85916 -9.34339,-2.57748 -2.5776,-1.71832 -4.7255,-4.29581 -6.44371,-7.73246 -1.71843,-3.65142 -3.00718,-6.55109 -3.86623,-8.69901 -0.64448,-2.36267 -1.50364,-5.58453 -2.57748,-9.66557 l -16.43147,-63.47056 -3.52368,-13.55555 -30.95018,101.51222 -15.08524,0.39869 37.27306,-127.87847 c -7e-5,-0.42942 -6.50819,-35.22379 -7.36728,-37.80144 -0.64444,-2.57731 -1.18142,-4.29563 -1.61093,-5.15497 -0.21486,-1.07378 -0.75183,-2.7921 -1.61093,-5.15497 -0.85922,-2.5773 -1.61099,-4.40302 -2.2553,-5.47715 -0.64443,-1.28856 -1.61099,-2.79209 -2.89967,-4.5106 -1.2888,-1.93293 -2.57754,-3.32906 -3.86622,-4.18841 -1.07401,-0.85897 -2.47015,-1.61074 -4.18842,-2.2553 -1.50358,-0.64418 -3.2219,-0.96637 -5.15497,-0.96656 -6.65854,1.9e-4 -12.0283,2.57768 -16.10928,7.73246 -4.08104,4.94036 -6.44374,10.95448 -7.08808,18.04239 l -9.34338,0 c 0.21477,-5.79917 0.85914,-11.5985 1.93311,-17.39802 1.07393,-5.79915 2.68486,-11.81328 4.83279,-18.0424 2.36266,-6.22871 5.69191,-11.27628 9.98775,-15.14272 4.51056,-3.86601 9.88031,-5.79912 16.10928,-5.79934 3.65138,2.2e-4 6.98063,1.07417 9.98775,3.22186 3.00701,2.14812 5.47709,4.7256 7.41027,7.73245 1.93305,2.79249 3.75876,6.55131 5.47716,11.2765 1.93304,4.72558 3.32917,8.6992 4.18841,11.92086 0.85908,3.22205 1.82564,7.41045 2.89967,12.56524 1.07387,4.94035 1.82564,8.05481 2.2553,9.34339 l 31.252,119.20867 c 1.07384,4.29585 2.0404,7.7325 2.89968,10.30994 0.85904,2.36273 2.57736,4.94021 5.15496,7.73245 2.57737,2.57752 5.69182,3.86626 9.34339,3.86623 5.58441,3e-5 9.66543,-2.68485 12.24305,-8.05464 2.79213,-5.58451 4.18827,-11.38384 4.18841,-17.39802 l 9.34339,0 0,4.5106"
         style="font-variant:normal;font-stretch:normal;font-family:Ubuntu;-inkscape-font-specification:Ubuntu"
         id="path3016-3"
         inkscape:connector-curvature="0"
         sodipodi:nodetypes="ccccsccccccccccccccccccccsccccccccccccccccc" />
    </g>
  </g>
</svg>
