<?xml version="1.0" encoding="UTF-8" standalone="no"?>
<!-- Created with Inkscape (http://www.inkscape.org/) -->

<svg
   xmlns:dc="http://purl.org/dc/elements/1.1/"
   xmlns:cc="http://creativecommons.org/ns#"
   xmlns:rdf="http://www.w3.org/1999/02/22-rdf-syntax-ns#"
   xmlns:svg="http://www.w3.org/2000/svg"
   xmlns="http://www.w3.org/2000/svg"
   xmlns:sodipodi="http://sodipodi.sourceforge.net/DTD/sodipodi-0.dtd"
   xmlns:inkscape="http://www.inkscape.org/namespaces/inkscape"
   width="744.09448819"
   height="1052.3622047"
   id="svg3026"
   version="1.1"
   inkscape:version="0.48.0 r9654"
   sodipodi:docname="New document 2">
  <defs
     id="defs3028" />
  <sodipodi:namedview
     id="base"
     pagecolor="#ffffff"
     bordercolor="#666666"
     borderopacity="1.0"
     inkscape:pageopacity="0.0"
     inkscape:pageshadow="2"
     inkscape:zoom="0.35"
     inkscape:cx="375"
     inkscape:cy="405.71429"
     inkscape:document-units="px"
     inkscape:current-layer="layer1"
     showgrid="false"
     inkscape:window-width="474"
     inkscape:window-height="459"
     inkscape:window-x="0"
     inkscape:window-y="22"
     inkscape:window-maximized="0" />
  <metadata
     id="metadata3031">
    <rdf:RDF>
      <cc:Work
         rdf:about="">
        <dc:format>image/svg+xml</dc:format>
        <dc:type
           rdf:resource="http://purl.org/dc/dcmitype/StillImage" />
        <dc:title></dc:title>
      </cc:Work>
    </rdf:RDF>
  </metadata>
  <g
     inkscape:label="Layer 1"
     inkscape:groupmode="layer"
     id="layer1">
    <g
       transform="matrix(-0.42121251,0,0,0.27752863,611.20711,306.79659)"
       clip-path="none"
       style="font-size:322.18560791px;font-style:normal;font-weight:normal;line-height:125%;letter-spacing:0px;word-spacing:0px;fill:#000000;fill-opacity:1;stroke:none;font-family:Sans"
       id="text2993-1-0">
      <path
         d="m 423.70489,535.17888 c -1.6e-4,5.3698 -0.32235,10.63216 -0.96656,15.78709 -0.64453,4.94021 -1.82587,10.41736 -3.54404,16.43147 -1.50369,5.79935 -4.29596,10.52473 -8.37683,14.17616 -3.86637,3.43665 -8.59175,5.15497 -14.17616,5.15497 -3.43678,0 -4.53052,1.88404 -9.34339,-0.004 -4.44305,-1.88779 -8.14541,-4.71947 -11.10712,-8.49505 -2.96208,-4.01153 -5.18352,-7.19717 -6.66428,-9.55692 -1.1109,-2.59568 -2.59184,-6.13529 -4.44284,-10.61881 -4.93429,-21.53948 -9.70676,-43.16041 -14.44385,-64.80086 l -27.13466,89.28697 -27.07625,-1.42122 45.09735,-134.18348 c -7e-5,-0.42942 -2.27005,-7.48155 -3.20056,-11.01693 -0.69801,-3.53491 -1.27964,-5.89168 -1.74486,-7.07031 -0.23273,-1.47274 -0.81433,-3.82951 -1.74486,-7.0703 -0.93065,-3.5349 -1.74493,-6.03897 -2.4428,-7.5122 -0.69801,-1.76733 -1.74492,-3.8295 -3.14074,-6.18652 -1.39595,-2.65112 -2.79183,-4.56598 -4.18765,-5.74463 -1.1633,-1.17812 -2.67551,-2.20921 -4.53663,-3.09326 -1.62859,-0.88353 -3.48977,-1.32542 -5.58355,-1.32568 -7.21211,2.6e-4 -7.05151,2.11267 -10.74616,6.33753 -3.69471,4.04913 -5.83374,8.97831 -6.41709,14.78757 l -13.58284,-3.7149 c 0.21477,-5.79917 0.85914,-11.5985 1.93311,-17.39802 1.07393,-5.79915 2.68486,-11.81328 4.83279,-18.0424 2.36266,-6.22871 5.69191,-11.27628 9.98775,-15.14272 4.51056,-3.86601 9.88031,-5.79912 16.10928,-5.79934 3.65138,2.2e-4 6.98063,1.07417 9.98775,3.22186 3.00701,2.14812 5.47709,4.7256 7.41027,7.73245 1.93305,2.79249 6.09491,6.55131 8.47491,11.2765 2.67728,4.72558 4.61094,8.6992 5.801,11.92086 1.18983,3.22205 2.52853,7.41045 4.01607,12.56524 1.48732,4.94035 2.52853,8.05481 3.12361,9.34339 l 24.65695,119.20867 c 1.07384,4.29585 2.0404,7.7325 2.89968,10.30994 0.85904,2.36273 2.57736,4.94021 5.15496,7.73245 2.57737,2.57752 5.69182,3.86626 9.34339,3.86623 5.58441,3e-5 9.66543,-2.68485 12.24305,-8.05464 2.79213,-5.58451 4.18827,-11.38384 4.18841,-17.39802 l 9.34339,0 0,4.5106"
         style="font-variant:normal;font-stretch:normal;font-family:Ubuntu;-inkscape-font-specification:Ubuntu"
         id="path3016-3-4"
         inkscape:connector-curvature="0"
         sodipodi:nodetypes="ccccscccccccccccccccccccsccccccccccccccccc" />
    </g>
    <g
       transform="matrix(-1.1163395,0,0,0.89578482,623.48702,-51.197092)"
       clip-path="none"
       style="font-size:322.18560791px;font-style:normal;font-weight:normal;line-height:125%;letter-spacing:0px;word-spacing:0px;fill:#000000;fill-opacity:1;stroke:none;font-family:Sans"
       id="text2993-40">
      <path
         d="m 423.70489,535.17888 c -1.6e-4,5.3698 -0.32235,10.63216 -0.96656,15.78709 -0.64453,4.94021 -1.82587,10.41736 -3.54404,16.43147 -1.50369,5.79935 -4.29596,10.52473 -8.37683,14.17616 -3.86637,3.43665 -8.59175,5.15497 -14.17616,5.15497 -3.43678,0 -6.55124,-0.85916 -9.34339,-2.57748 -2.5776,-1.71832 -4.7255,-4.29581 -6.44371,-7.73246 -1.71843,-3.65142 -3.00718,-6.55109 -3.86623,-8.69901 -0.64448,-2.36267 -1.50364,-5.58453 -2.57748,-9.66557 l -16.43147,-63.47056 -3.52368,-13.55555 -30.95018,101.51222 -15.08524,0.39869 37.27306,-127.87847 c -7e-5,-0.42942 -6.50819,-35.22379 -7.36728,-37.80144 -0.64444,-2.57731 -1.18142,-4.29563 -1.61093,-5.15497 -0.21486,-1.07378 -0.75183,-2.7921 -1.61093,-5.15497 -0.85922,-2.5773 -1.61099,-4.40302 -2.2553,-5.47715 -0.64443,-1.28856 -1.61099,-2.79209 -2.89967,-4.5106 -1.2888,-1.93293 -2.57754,-3.32906 -3.86622,-4.18841 -1.07401,-0.85897 -2.47015,-1.61074 -4.18842,-2.2553 -1.50358,-0.64418 -3.2219,-0.96637 -5.15497,-0.96656 -6.65854,1.9e-4 -12.0283,2.57768 -16.10928,7.73246 -4.08104,4.94036 -6.44374,10.95448 -7.08808,18.04239 l -9.34338,0 c 0.21477,-5.79917 0.85914,-11.5985 1.93311,-17.39802 1.07393,-5.79915 2.68486,-11.81328 4.83279,-18.0424 2.36266,-6.22871 5.69191,-11.27628 9.98775,-15.14272 4.51056,-3.86601 9.88031,-5.79912 16.10928,-5.79934 3.65138,2.2e-4 6.98063,1.07417 9.98775,3.22186 3.00701,2.14812 5.47709,4.7256 7.41027,7.73245 1.93305,2.79249 3.75876,6.55131 5.47716,11.2765 1.93304,4.72558 3.32917,8.6992 4.18841,11.92086 0.85908,3.22205 1.82564,7.41045 2.89967,12.56524 1.07387,4.94035 1.82564,8.05481 2.2553,9.34339 l 31.252,119.20867 c 1.07384,4.29585 2.0404,7.7325 2.89968,10.30994 0.85904,2.36273 2.57736,4.94021 5.15496,7.73245 2.57737,2.57752 5.69182,3.86626 9.34339,3.86623 5.58441,3e-5 9.66543,-2.68485 12.24305,-8.05464 2.79213,-5.58451 4.18827,-11.38384 4.18841,-17.39802 l 9.34339,0 0,4.5106"
         style="font-variant:normal;font-stretch:normal;font-family:Ubuntu;-inkscape-font-specification:Ubuntu"
         id="path3016-8"
         inkscape:connector-curvature="0"
         sodipodi:nodetypes="ccccsccccccccccccccccccccsccccccccccccccccc" />
    </g>
    <g
       transform="matrix(1.0039177,0,0,0.99609761,36.267133,-52.207252)"
       style="font-size:118.16516113px;font-style:normal;font-variant:normal;font-weight:normal;font-stretch:normal;line-height:125%;letter-spacing:0px;word-spacing:0px;fill:#000000;fill-opacity:1;stroke:none;font-family:Ubuntu;-inkscape-font-specification:Ubuntu"
       id="text3018-0">
      <path
         inkscape:connector-curvature="0"
         d="m 322.39729,492.34017 c -6e-5,4.88418 -0.70905,9.29568 -2.12697,13.2345 -1.41804,3.93885 -3.42685,7.32625 -6.02642,10.1622 -2.52091,2.83597 -5.55382,5.04172 -9.09872,6.61725 -3.545,1.49676 -7.40506,2.24514 -11.58019,2.24514 -4.1752,0 -8.03525,-0.74838 -11.58018,-2.24514 -3.54498,-1.57553 -6.61727,-3.78128 -9.21689,-6.61725 -2.52086,-2.83595 -4.49028,-6.22335 -5.90825,-10.1622 -1.41799,-3.93882 -2.12698,-8.35032 -2.12698,-13.2345 0,-4.80535 0.70899,-9.17746 2.12698,-13.11633 1.41797,-4.01757 3.38739,-7.44436 5.90825,-10.28037 2.59962,-2.83591 5.67191,-5.00227 9.21689,-6.49909 3.54493,-1.57547 7.40498,-2.36324 11.58018,-2.3633 4.17513,6e-5 8.03519,0.78783 11.58019,2.3633 3.5449,1.49682 6.57781,3.66318 9.09872,6.49909 2.59957,2.83601 4.60838,6.2628 6.02642,10.28037 1.41792,3.93887 2.12691,8.31098 2.12697,13.11633 m -11.46202,0 c -5e-5,-6.93232 -1.57558,-12.4073 -4.7266,-16.42496 -3.07234,-4.09634 -7.2869,-6.14453 -12.64368,-6.14459 -5.35685,6e-5 -9.61079,2.04825 -12.76183,6.14459 -3.07232,4.01766 -4.60846,9.49264 -4.60845,16.42496 -10e-6,6.93238 1.53613,12.44675 4.60845,16.54312 3.15104,4.01763 7.40498,6.02643 12.76183,6.02642 5.35678,10e-6 9.57134,-2.00879 12.64368,-6.02642 3.15102,-4.09637 4.72655,-9.61074 4.7266,-16.54312"
         id="path3851-5" />
      <path
         inkscape:connector-curvature="0"
         d="m 338.32005,463.3897 c 2.52085,-0.63015 5.86886,-1.29975 10.04404,-2.0088 4.17515,-0.70893 8.98052,-1.06343 14.41615,-1.06349 4.88412,6e-5 8.94112,0.70905 12.17101,2.12697 3.2298,1.33927 5.79004,3.2693 7.68074,5.7901 1.96936,2.44213 3.34795,5.39625 4.13578,8.86238 0.78771,3.46622 1.18159,7.28689 1.18165,11.46202 l 0,34.50423 -10.98936,0 0,-32.14092 c -5e-5,-3.78125 -0.27577,-7.0111 -0.82716,-9.68955 -0.4727,-2.67836 -1.29986,-4.84472 -2.48147,-6.49908 -1.18169,-1.65426 -2.75722,-2.83591 -4.7266,-3.54496 -1.96946,-0.78771 -4.41154,-1.18159 -7.32624,-1.18165 -1.18169,6e-5 -2.40272,0.0394 -3.66312,0.11817 -1.26046,0.0788 -2.4815,0.19699 -3.66312,0.35449 -1.1029,0.0788 -2.127,0.197 -3.0723,0.3545 -0.86656,0.1576 -1.49678,0.27577 -1.89064,0.35449 l 0,51.87451 -10.98936,0 0,-59.67341"
         id="path3853-9" />
      <path
         inkscape:connector-curvature="0"
         d="m 510.94458,521.29063 c -2.52092,0.63022 -5.86893,1.29982 -10.04404,2.00881 -4.09644,0.70899 -8.86243,1.06349 -14.29799,1.06349 -4.72663,0 -8.70486,-0.66961 -11.93468,-2.00881 -3.22987,-1.41798 -5.8295,-3.3874 -7.7989,-5.90826 -1.96943,-2.52085 -3.38741,-5.47497 -4.25395,-8.86239 -0.86655,-3.46615 -1.29982,-7.28682 -1.29981,-11.46202 l 0,-34.50422 10.98936,0 0,32.14092 c -2e-5,7.48382 1.18163,12.84063 3.54495,16.07046 2.36328,3.22986 6.3415,4.84478 11.93468,4.84477 1.18162,1e-5 2.40266,-0.0394 3.66312,-0.11816 1.26039,-0.0788 2.44204,-0.15755 3.54496,-0.23633 1.10283,-0.15755 2.08754,-0.27571 2.95413,-0.3545 0.94527,-0.15754 1.61487,-0.31509 2.00881,-0.47266 l 0,-51.8745 10.98936,0 0,59.6734"
         id="path3857-9" />
      <path
         inkscape:connector-curvature="0"
         d="m 553.02615,460.31741 c 0.94529,6e-5 2.00877,0.0788 3.19046,0.23633 1.26039,0.0788 2.48143,0.23639 3.66312,0.47266 1.18161,0.15762 2.2451,0.35456 3.19046,0.59083 1.02405,0.15761 1.77243,0.31516 2.24514,0.47266 l -1.89065,9.57138 c -0.86658,-0.31506 -2.32395,-0.66956 -4.37211,-1.06349 -1.96945,-0.47261 -4.5297,-0.70894 -7.68073,-0.70899 -2.04823,5e-5 -4.09642,0.23638 -6.14459,0.70899 -1.96944,0.39393 -3.26926,0.66965 -3.89945,0.82715 l 0,51.63818 -10.98936,0 0,-58.84625 c 2.59962,-0.94526 5.82946,-1.81181 9.68954,-2.59963 3.86004,-0.86649 8.19276,-1.29976 12.99817,-1.29982"
         id="path3859-1" />
    </g>
  </g>
</svg>
