<?xml version="1.0" encoding="UTF-8" standalone="no"?>
<!DOCTYPE svg PUBLIC "-//W3C//DTD SVG 1.1//EN"
 "http://www.w3.org/Graphics/SVG/1.1/DTD/svg11.dtd">
<!-- Generated by graphviz version 2.28.0 (20110509.1545)
 -->
<!-- Title: Diamond Pages: 1 -->
<svg width="345pt" height="212pt"
 viewBox="0.00 0.00 345.00 212.00" xmlns="http://www.w3.org/2000/svg" xmlns:xlink="http://www.w3.org/1999/xlink">
<g id="graph1" class="graph" transform="scale(1 1) rotate(0) translate(4 208)">
<title>Diamond</title>
<polygon fill="white" stroke="white" points="-4,5 -4,-208 342,-208 342,5 -4,5"/>
<!-- Any -->
<g id="node1" class="node"><title>Any</title>
<polygon fill="none" stroke="black" points="202.252,-204 135.748,-204 135.748,-160 202.252,-160 202.252,-204"/>
<text text-anchor="middle" x="169" y="-170" font-family="Times,serif" font-size="30.00">Any</text>
</g>
<!-- Rectangle -->
<g id="node3" class="node"><title>Rectangle</title>
<polygon fill="none" stroke="black" points="134.456,-124 -0.456276,-124 -0.456276,-80 134.456,-80 134.456,-124"/>
<text text-anchor="middle" x="67" y="-90" font-family="Times,serif" font-size="30.00">Rectangle</text>
</g>
<!-- Any&#45;&gt;Rectangle -->
<g id="edge2" class="edge"><title>Any&#45;&gt;Rectangle</title>
<path fill="none" stroke="black" d="M141.397,-159.892C129.491,-150.788 115.414,-140.022 102.725,-130.319"/>
<polygon fill="black" stroke="black" points="104.694,-127.419 94.6247,-124.125 100.442,-132.98 104.694,-127.419"/>
</g>
<!-- Clickable -->
<g id="node5" class="node"><title>Clickable</title>
<polygon fill="none" stroke="black" points="337.221,-124 206.779,-124 206.779,-80 337.221,-80 337.221,-124"/>
<text text-anchor="middle" x="272" y="-90" font-family="Times,serif" font-size="30.00">Clickable</text>
</g>
<!-- Any&#45;&gt;Clickable -->
<g id="edge4" class="edge"><title>Any&#45;&gt;Clickable</title>
<path fill="none" stroke="black" d="M196.873,-159.892C208.896,-150.788 223.112,-140.022 235.924,-130.319"/>
<polygon fill="black" stroke="black" points="238.245,-132.952 244.104,-124.125 234.019,-127.372 238.245,-132.952"/>
</g>
<!-- Button -->
<g id="node7" class="node"><title>Button</title>
<polygon fill="none" stroke="black" points="217.262,-44 120.738,-44 120.738,-0 217.262,-0 217.262,-44"/>
<text text-anchor="middle" x="169" y="-10" font-family="Times,serif" font-size="30.00">Button</text>
</g>
<!-- Rectangle&#45;&gt;Button -->
<g id="edge6" class="edge"><title>Rectangle&#45;&gt;Button</title>
<path fill="none" stroke="black" d="M94.6027,-79.8921C106.509,-70.7876 120.586,-60.0221 133.275,-50.3193"/>
<polygon fill="black" stroke="black" points="135.558,-52.9796 141.375,-44.1248 131.306,-47.4191 135.558,-52.9796"/>
</g>
<!-- Clickable&#45;&gt;Button -->
<g id="edge8" class="edge"><title>Clickable&#45;&gt;Button</title>
<path fill="none" stroke="black" d="M244.127,-79.8921C232.104,-70.7876 217.888,-60.0221 205.076,-50.3193"/>
<polygon fill="black" stroke="black" points="206.981,-47.3717 196.896,-44.1248 202.755,-52.9521 206.981,-47.3717"/>
</g>
</g>
</svg>
