<?xml version="1.0" encoding="UTF-8" standalone="no"?>
<!DOCTYPE svg PUBLIC "-//W3C//DTD SVG 1.1//EN"
 "http://www.w3.org/Graphics/SVG/1.1/DTD/svg11.dtd">
<!-- Generated by graphviz version 2.28.0 (20110509.1545)
 -->
<!-- Title: hello Pages: 1 -->
<svg width="726pt" height="292pt"
 viewBox="0.00 0.00 726.00 292.00" xmlns="http://www.w3.org/2000/svg" xmlns:xlink="http://www.w3.org/1999/xlink">
<g id="graph1" class="graph" transform="scale(1 1) rotate(0) translate(4 288)">
<title>hello</title>
<polygon fill="white" stroke="white" points="-4,5 -4,-288 723,-288 723,5 -4,5"/>
<!-- Any -->
<g id="node1" class="node"><title>Any</title>
<polygon fill="none" stroke="black" points="444.252,-284 377.748,-284 377.748,-240 444.252,-240 444.252,-284"/>
<text text-anchor="middle" x="411" y="-250" font-family="Times,serif" font-size="30.00">Any</text>
</g>
<!-- Eq -->
<g id="node3" class="node"><title>Eq</title>
<polygon fill="none" stroke="black" points="438,-204 384,-204 384,-160 438,-160 438,-204"/>
<text text-anchor="middle" x="411" y="-170" font-family="Times,serif" font-size="30.00">Eq</text>
</g>
<!-- Any&#45;&gt;Eq -->
<g id="edge2" class="edge"><title>Any&#45;&gt;Eq</title>
<path fill="none" stroke="black" d="M411,-239.686C411,-231.798 411,-222.684 411,-214.103"/>
<polygon fill="black" stroke="black" points="414.5,-214.018 411,-204.018 407.5,-214.018 414.5,-214.018"/>
</g>
<!-- Number -->
<g id="node5" class="node"><title>Number</title>
<polygon fill="none" stroke="black" points="385.229,-124 270.771,-124 270.771,-80 385.229,-80 385.229,-124"/>
<text text-anchor="middle" x="328" y="-90" font-family="Times,serif" font-size="30.00">Number</text>
</g>
<!-- Eq&#45;&gt;Number -->
<g id="edge4" class="edge"><title>Eq&#45;&gt;Number</title>
<path fill="none" stroke="black" d="M388.32,-159.686C378.911,-150.844 367.864,-140.463 357.814,-131.018"/>
<polygon fill="black" stroke="black" points="360.049,-128.316 350.365,-124.018 355.256,-133.417 360.049,-128.316"/>
</g>
<!-- Bool -->
<g id="node7" class="node"><title>Bool</title>
<polygon fill="none" stroke="black" points="531.259,-44 456.741,-44 456.741,-0 531.259,-0 531.259,-44"/>
<text text-anchor="middle" x="494" y="-10" font-family="Times,serif" font-size="30.00">Bool</text>
</g>
<!-- Eq&#45;&gt;Bool -->
<g id="edge6" class="edge"><title>Eq&#45;&gt;Bool</title>
<path fill="none" stroke="black" d="M422.194,-159.691C436.59,-132.287 461.684,-84.5167 478.068,-53.3285"/>
<polygon fill="black" stroke="black" points="481.299,-54.7032 482.851,-44.2227 475.102,-51.4478 481.299,-54.7032"/>
</g>
<!-- Int -->
<g id="node9" class="node"><title>Int</title>
<polygon fill="none" stroke="black" points="54,-44 0,-44 0,-0 54,-0 54,-44"/>
<text text-anchor="middle" x="27" y="-10" font-family="Times,serif" font-size="30.00">Int</text>
</g>
<!-- Number&#45;&gt;Int -->
<g id="edge8" class="edge"><title>Number&#45;&gt;Int</title>
<path fill="none" stroke="black" d="M270.895,-88.7841C222.457,-78.0742 151.278,-61.5152 90,-44 81.4748,-41.5632 72.3861,-38.6953 63.8418,-35.8752"/>
<polygon fill="black" stroke="black" points="64.7221,-32.4788 54.1281,-32.6153 62.4949,-39.1151 64.7221,-32.4788"/>
</g>
<!-- Float -->
<g id="node11" class="node"><title>Float</title>
<polygon fill="none" stroke="black" points="375.255,-44 298.745,-44 298.745,-0 375.255,-0 375.255,-44"/>
<text text-anchor="middle" x="337" y="-10" font-family="Times,serif" font-size="30.00">Float</text>
</g>
<!-- Number&#45;&gt;Float -->
<g id="edge10" class="edge"><title>Number&#45;&gt;Float</title>
<path fill="none" stroke="black" d="M330.459,-79.6862C331.37,-71.7975 332.421,-62.684 333.411,-54.1029"/>
<polygon fill="black" stroke="black" points="336.905,-54.3533 334.575,-44.018 329.952,-53.5509 336.905,-54.3533"/>
</g>
<!-- Boolean -->
<g id="node13" class="node"><title>Boolean</title>
<polygon fill="none" stroke="black" points="718.482,-44 603.518,-44 603.518,-0 718.482,-0 718.482,-44"/>
<text text-anchor="middle" x="661" y="-10" font-family="Times,serif" font-size="30.00">Boolean</text>
</g>
<!-- Bool&#45;&gt;Boolean -->
<g id="edge12" class="edge"><title>Bool&#45;&gt;Boolean</title>
<path fill="none" stroke="black" d="M531.184,-10.5767C551.883,-6.03893 572.583,-4.5432 593.283,-6.08951"/>
<polygon fill="black" stroke="black" points="593.149,-9.59323 603.445,-7.09297 593.837,-2.62711 593.149,-9.59323"/>
</g>
<!-- Integer -->
<g id="node15" class="node"><title>Integer</title>
<polygon fill="none" stroke="black" points="226.21,-44 125.79,-44 125.79,-0 226.21,-0 226.21,-44"/>
<text text-anchor="middle" x="176" y="-10" font-family="Times,serif" font-size="30.00">Integer</text>
</g>
<!-- Int&#45;&gt;Integer -->
<g id="edge18" class="edge"><title>Int&#45;&gt;Integer</title>
<path fill="none" stroke="black" d="M54.0645,-31.8107C74.5309,-37.583 94.9974,-39.6196 115.464,-37.9203"/>
<polygon fill="black" stroke="black" points="115.967,-41.3859 125.511,-36.7861 115.182,-34.4301 115.967,-41.3859"/>
</g>
<!-- Boolean&#45;&gt;Bool -->
<g id="edge14" class="edge"><title>Boolean&#45;&gt;Bool</title>
<path fill="none" stroke="black" d="M603.445,-36.907C582.651,-39.4605 561.857,-38.9441 541.063,-35.3581"/>
<polygon fill="black" stroke="black" points="541.67,-31.9105 531.184,-33.4233 540.324,-38.78 541.67,-31.9105"/>
</g>
<!-- Integer&#45;&gt;Int -->
<g id="edge16" class="edge"><title>Integer&#45;&gt;Int</title>
<path fill="none" stroke="black" d="M125.511,-7.21393C104.952,-4.27882 84.3921,-5.1135 63.8325,-9.71797"/>
<polygon fill="black" stroke="black" points="62.9005,-6.34341 54.0645,-12.1893 64.6175,-13.1296 62.9005,-6.34341"/>
</g>
</g>
</svg>
